<svg xmlns="http://www.w3.org/2000/svg" xmlns:xlink="http://www.w3.org/1999/xlink" width="100%" viewBox="0 0 690 394">
  <defs>
    <path id="banner-a" d="M962.558394,108.213775 C865.861884,108.213775 737.721345,154.460586 696.31596,215.569178 C654.910574,276.67777 677.893367,378.980058 587.055829,412.351854 C496.218291,445.723649 427.480664,370.395436 333.32028,388.520776 C250.522682,404.458844 228.233697,463.337928 178.801652,487.008162 C133.115459,508.884717 94.0309773,449.916773 91.1256221,480.52315 C86.3501404,530.830319 83.6415997,370.655935 83,0 L954.618689,0 C1024.37617,72.1425166 1027.02273,108.213775 962.558394,108.213775 Z"/>
    <linearGradient id="banner-c" x1="53.114%" x2="97.673%" y1="27.274%" y2="95.57%">
      <stop offset="0%" stop-color="#EEE" stop-opacity="0"/>
      <stop offset="100%"/>
    </linearGradient>
    <linearGradient id="banner-d" x1="50%" x2="4.959%" y1="24.655%" y2="84.998%">
      <stop offset="0%" stop-color="#B6D8FF"/>
      <stop offset="100%" stop-color="#7FAFFF" stop-opacity=".436"/>
    </linearGradient>
    <filter id="banner-e" width="100%" height="100%" x="0%" y="0%" filterUnits="objectBoundingBox">
      <feGaussianBlur in="SourceGraphic"/>
    </filter>
    <circle id="banner-g" cx="520" cy="422" r="71"/>
    <filter id="banner-f" width="177.5%" height="177.5%" x="-38.7%" y="-52.8%" filterUnits="objectBoundingBox">
      <feMorphology in="SourceAlpha" radius="4" result="shadowSpreadOuter1"/>
      <feOffset dy="-20" in="shadowSpreadOuter1" result="shadowOffsetOuter1"/>
      <feGaussianBlur in="shadowOffsetOuter1" result="shadowBlurOuter1" stdDeviation="19"/>
      <feColorMatrix in="shadowBlurOuter1" values="0 0 0 0 0.082414195   0 0 0 0 0.152067985   0 0 0 0 0.680803571  0 0 0 0.701794611 0"/>
    </filter>
    <ellipse id="banner-h" cx="72.5" cy="72.404" rx="72.5" ry="72.404"/>
  </defs>
  <g fill="none" fill-rule="evenodd" transform="translate(-132 -108)">
    <mask id="banner-b" fill="#fff">
      <use xlink:href="#banner-a"/>
    </mask>
    <use fill="#3237F1" xlink:href="#banner-a"/>
    <path fill="#271AD7" d="M236.579668,338.097612 C332.131318,338.097612 382.188261,240.031133 477.263161,240.031133 C540.646428,240.031133 593.399851,277.947307 635.523428,353.779656 C747.671737,456.751108 803.871984,502.602029 804.124169,491.33242 C804.376354,480.062811 821.334964,318.816966 855,7.59488569 L81,-2 L89.6944543,226.571159 C123.91683,300.922128 172.878568,338.097612 236.579668,338.097612 Z" mask="url(#banner-b)"/>
    <path fill="url(#banner-c)" d="M423.898643,43 C460.410251,168.178624 481.853838,242.158947 488.229402,264.940966 C497.792749,299.113996 485.074484,342.500746 410.698377,323.267105 C361.114306,310.444678 252.214847,285.637102 84,248.844378 L423.898643,43 Z" mask="url(#banner-b)" style="mix-blend-mode:soft-light" transform="rotate(7 287.5 185.5)"/>
    <path fill="url(#banner-d)" d="M640.885955,53.1684577 C622.923658,129.606632 656.582611,193.616263 573.221682,248.504239 C489.860753,303.392214 474.944509,490.205423 542.608782,478.471002 C587.718297,470.648054 719.848703,450.189872 939,417.096455 L910.509044,-4.18816211 C742.735183,-16.9091984 652.86082,2.20967483 640.885955,53.1684577 Z" filter="url(#banner-e)" mask="url(#banner-b)"/>
    <rect width="29" height="29" x="260.212" y="197.212" fill="#FF008D" mask="url(#banner-b)" transform="rotate(-29 274.712 211.712)"/>
    <use fill="#000" filter="url(#banner-f)" xlink:href="#banner-g"/>
    <use fill="#FF008D" xlink:href="#banner-g"/>
    <rect width="68" height="205" x="70" y="102" fill="#D8D8D8" opacity=".665" rx="34" style="mix-blend-mode:soft-light" transform="rotate(-125 104 204.5)"/>
    <g transform="translate(448 350)">
      <mask id="banner-i" fill="#fff">
        <use xlink:href="#banner-h"/>
      </mask>
      <use fill="#1A30D7" xlink:href="#banner-h"/>
      <path fill="#FFF" d="M82.0231988,174.226909 C77.5314463,154.370927 88.3371636,123.445691 95.1149828,119.220637 C106.642147,118.039863 124.859568,98.9901137 124.859568,79.4817747 C124.859568,45.7856591 107.800311,25.59253 97.3826857,18.8603184 C93.4314262,16.3068848 89.0226732,33.6944124 90.1513114,41.5191594 C63.5002377,38.0918244 51.461789,52.7066292 46.9679658,55.2548567 C44.6298677,53.4070626 26.4067316,33.2269654 20.8237283,38.2669905 C17.681135,50.9971947 23.7517615,91.0835625 35.5553333,101.572322 C32.0155121,113.714154 5.40644832,126.732137 2.4301676,128.505221" mask="url(#banner-i)"/>
      <path fill="#1A30D7" d="M98.7256391,72.8461144 C100.663682,72.9071245 102.497692,71.0578114 102.497692,68.7932976 C102.497692,66.5287837 100.72585,64.4009092 98.4793711,64.3315723 C96.2328925,64.2622354 94.7617376,66.6567907 94.6831234,68.5717512 C94.6045091,70.4867118 96.7875963,72.7851042 98.7256391,72.8461144 Z" mask="url(#banner-i)" transform="rotate(-24 98.59 68.589)"/>
      <path fill="#1A30D7" d="M76.7666183,84.1502498 C79.1153712,84.1502498 81.3631079,82.4905453 81.3631079,80.1448864 C81.3631079,77.7992276 78.9323117,75.5192689 76.5835588,75.5192689 C74.2348059,75.5192689 72.2918068,77.4771319 72.2918068,79.8227907 C72.2918068,82.1684495 74.4178654,84.1502498 76.7666183,84.1502498 Z" mask="url(#banner-i)" transform="rotate(13 76.827 79.835)"/>
      <path fill="#1A30D7" d="M96.8272557,87.9185911 C98.7049591,86.5041561 99.0637505,83.4999009 98.3269336,82.503821 C96.339749,81.6780054 92.2892976,82.9011812 91.5719859,86.3359826 C92.5810775,87.5308541 94.3021232,87.8923453 96.8272557,87.9185911 Z" mask="url(#banner-i)" transform="rotate(-3 95.128 85.087)"/>
      <path stroke="#1A30D7" stroke-linecap="round" stroke-linejoin="round" stroke-width="4" d="M96.396648,86.5617978 L97.6117318,89.3932584" mask="url(#banner-i)"/>
      <ellipse cx="104.497" cy="76.854" fill="#1A30D7" mask="url(#banner-i)" opacity=".102" rx="2.43" ry="2.427"/>
      <ellipse cx="84.448" cy="90" fill="#1A30D7" mask="url(#banner-i)" opacity=".08" rx="2.633" ry="2.629"/>
      <path stroke="#FFF" stroke-linecap="round" stroke-width="2" d="M123.53352 85.3366256L128.627334 84.5393258M123.128492 86.5617978L127.130422 87.1948063M55.8424355 52.4703741L50.2234637 45.3033708M57.7561229 53.5846056L53.7520085 45.4075075" mask="url(#banner-i)"/>
    </g>
  </g>
</svg>
